<svg width="65" height="22" viewBox="0 0 65 22" fill="none" xmlns="http://www.w3.org/2000/svg">
<path d="M21 1.67188C21 1.34375 20.8594 1.0625 20.625 0.828125C20.3906 0.640625 20.1094 0.5 19.8281 0.5H1.17188C0.796875 0.5 0.515625 0.640625 0.328125 0.828125C0.09375 1.0625 0 1.34375 0 1.67188V20.3281C0 20.6562 0.09375 20.9375 0.328125 21.1719C0.515625 21.4062 0.796875 21.5 1.17188 21.5H11.2031V13.3438H8.48438V10.2031H11.2031V7.85938C11.2031 6.54688 11.5781 5.51562 12.3281 4.76562C13.0781 4.0625 14.0625 3.6875 15.2812 3.6875C16.2188 3.6875 17.0625 3.73438 17.7188 3.78125V6.64062H16.0312C15.4219 6.64062 15 6.78125 14.7656 7.0625C14.5781 7.29688 14.4844 7.67188 14.4844 8.1875V10.2031H17.625L17.2031 13.3438H14.4844V21.5H19.8281C20.1562 21.5 20.4375 21.4062 20.6719 21.1719C20.8594 20.9375 21 20.6562 21 20.3281V1.67188ZM53.595 5.60938C54.5325 5.60938 55.4231 5.89062 56.2669 6.35938C57.1106 6.82812 57.7669 7.48438 58.2356 8.32812C58.7044 9.17188 58.9856 10.0625 58.9856 11C58.9856 11.9844 58.7044 12.875 58.2356 13.7188C57.7669 14.5625 57.1106 15.2188 56.2669 15.6875C55.4231 16.1562 54.5325 16.3906 53.595 16.3906C52.6106 16.3906 51.72 16.1562 50.8763 15.6875C50.0325 15.2188 49.3763 14.5625 48.9075 13.7188C48.4388 12.875 48.2044 11.9844 48.2044 11C48.2044 10.0625 48.4388 9.17188 48.9075 8.32812C49.3763 7.48438 50.0325 6.82812 50.8763 6.35938C51.72 5.89062 52.6106 5.60938 53.595 5.60938ZM53.595 14.5156C54.5325 14.5156 55.3763 14.1875 56.0794 13.4844C56.7356 12.8281 57.1106 11.9844 57.1106 11C57.1106 10.0625 56.7356 9.21875 56.0794 8.51562C55.3763 7.85938 54.5325 7.48438 53.595 7.48438C52.6106 7.48438 51.7669 7.85938 51.1106 8.51562C50.4075 9.21875 50.0794 10.0625 50.0794 11C50.0794 11.9844 50.4075 12.8281 51.1106 13.4844C51.7669 14.1875 52.6106 14.5156 53.595 14.5156ZM60.4856 5.375C60.4856 5.04688 60.345 4.76562 60.1106 4.48438C59.8294 4.25 59.5481 4.10938 59.22 4.10938C58.845 4.10938 58.5638 4.25 58.3294 4.48438C58.0481 4.76562 57.9544 5.04688 57.9544 5.375C57.9544 5.75 58.0481 6.03125 58.3294 6.26562C58.5638 6.54688 58.845 6.64062 59.22 6.64062C59.5481 6.64062 59.8294 6.54688 60.0638 6.26562C60.2981 6.03125 60.4388 5.75 60.4856 5.375ZM64.0481 6.64062C64.0481 7.53125 64.095 8.98438 64.095 11C64.095 13.0625 64.0481 14.5156 64.0013 15.4062C63.9544 16.2969 63.8138 17.0469 63.6263 17.7031C63.345 18.5 62.8763 19.2031 62.3138 19.7656C61.7513 20.3281 61.0481 20.75 60.2981 21.0312C59.6419 21.2656 58.845 21.4062 57.9544 21.4531C57.0638 21.5 55.6106 21.5 53.595 21.5C51.5325 21.5 50.0794 21.5 49.1888 21.4531C48.2981 21.4062 47.5481 21.2656 46.8919 20.9844C46.095 20.75 45.3919 20.3281 44.8294 19.7656C44.2669 19.2031 43.845 18.5 43.5638 17.7031C43.3294 17.0469 43.1888 16.2969 43.1419 15.4062C43.095 14.5156 43.095 13.0625 43.095 11C43.095 8.98438 43.095 7.53125 43.1419 6.64062C43.1888 5.75 43.3294 4.95312 43.5638 4.29688C43.845 3.54688 44.2669 2.84375 44.8294 2.28125C45.3919 1.71875 46.095 1.25 46.8919 0.96875C47.5481 0.78125 48.2981 0.640625 49.1888 0.59375C50.0794 0.546875 51.5325 0.5 53.595 0.5C55.6106 0.5 57.0638 0.546875 57.9544 0.59375C58.845 0.640625 59.6419 0.78125 60.2981 0.96875C61.0481 1.25 61.7513 1.71875 62.3138 2.28125C62.8763 2.84375 63.345 3.54688 63.6263 4.29688C63.8138 4.95312 63.9544 5.75 64.0481 6.64062ZM61.7981 17.1875C61.9856 16.6719 62.0794 15.8281 62.1731 14.6562C62.1731 14 62.22 13.0156 62.22 11.75V10.25C62.22 8.98438 62.1731 8 62.1731 7.34375C62.0794 6.17188 61.9856 5.32812 61.7981 4.8125C61.4231 3.875 60.72 3.17188 59.7825 2.79688C59.2669 2.60938 58.4231 2.51562 57.2513 2.42188C56.5481 2.42188 55.5638 2.375 54.345 2.375H52.845C51.5794 2.375 50.595 2.42188 49.9388 2.42188C48.7669 2.51562 47.9231 2.60938 47.4075 2.79688C46.4231 3.17188 45.7669 3.875 45.3919 4.8125C45.2044 5.32812 45.0638 6.17188 45.0169 7.34375C44.97 8.04688 44.97 9.03125 44.97 10.25V11.75C44.97 13.0156 44.97 14 45.0169 14.6562C45.0638 15.8281 45.2044 16.6719 45.3919 17.1875C45.7669 18.1719 46.47 18.8281 47.4075 19.2031C47.9231 19.3906 48.7669 19.5312 49.9388 19.5781C50.595 19.625 51.5794 19.625 52.845 19.625H54.345C55.6106 19.625 56.595 19.625 57.2513 19.5781C58.4231 19.5312 59.2669 19.3906 59.7825 19.2031C60.72 18.8281 61.4231 18.125 61.7981 17.1875Z" fill="#17D6DD"/>
</svg>
